solid OpenSCAD_Model
  facet normal -1 0 0
    outer loop
      vertex -0.5 -0.5 0
      vertex -0.5 0.5 2
      vertex -0.5 0.5 0
    endloop
  endfacet
  facet normal -1 -0 0
    outer loop
      vertex -0.5 0.5 2
      vertex -0.5 -0.5 0
      vertex -0.5 -0.5 2
    endloop
  endfacet
  facet normal 0 0 -1
    outer loop
      vertex 0.707107 -0.707107 2
      vertex 0.5 -0.5 2
      vertex 0.707107 0.707107 2
    endloop
  endfacet
  facet normal 0 0 -1
    outer loop
      vertex 0.707107 -0.707107 2
      vertex -0.5 -0.5 2
      vertex 0.5 -0.5 2
    endloop
  endfacet
  facet normal -0 0 -1
    outer loop
      vertex -0.5 -0.5 2
      vertex -0.707107 -0.707107 2
      vertex -0.5 0.5 2
    endloop
  endfacet
  facet normal 0 0 -1
    outer loop
      vertex -0.707107 -0.707107 2
      vertex -0.5 -0.5 2
      vertex 0.707107 -0.707107 2
    endloop
  endfacet
  facet normal 0 0 -1
    outer loop
      vertex 0.5 0.5 2
      vertex 0.707107 0.707107 2
      vertex 0.5 -0.5 2
    endloop
  endfacet
  facet normal 0 0 -1
    outer loop
      vertex -0.5 0.5 2
      vertex 0.707107 0.707107 2
      vertex 0.5 0.5 2
    endloop
  endfacet
  facet normal 0 0 -1
    outer loop
      vertex -0.5 0.5 2
      vertex -0.707107 0.707107 2
      vertex 0.707107 0.707107 2
    endloop
  endfacet
  facet normal 0 0 -1
    outer loop
      vertex -0.707107 0.707107 2
      vertex -0.5 0.5 2
      vertex -0.707107 -0.707107 2
    endloop
  endfacet
  facet normal 1 -0 0
    outer loop
      vertex 0.5 -0.5 2
      vertex 0.5 0.5 0
      vertex 0.5 0.5 2
    endloop
  endfacet
  facet normal 1 0 0
    outer loop
      vertex 0.5 0.5 0
      vertex 0.5 -0.5 2
      vertex 0.5 -0.5 0
    endloop
  endfacet
  facet normal 0 1 -0
    outer loop
      vertex 0.5 0.5 0
      vertex -0.5 0.5 2
      vertex 0.5 0.5 2
    endloop
  endfacet
  facet normal 0 1 0
    outer loop
      vertex -0.5 0.5 2
      vertex 0.5 0.5 0
      vertex -0.5 0.5 0
    endloop
  endfacet
  facet normal 0 0 -1
    outer loop
      vertex -0.5 -0.5 0
      vertex 0.5 0.5 0
      vertex 0.5 -0.5 0
    endloop
  endfacet
  facet normal -0 0 -1
    outer loop
      vertex 0.5 0.5 0
      vertex -0.5 -0.5 0
      vertex -0.5 0.5 0
    endloop
  endfacet
  facet normal 0 -1 0
    outer loop
      vertex -0.5 -0.5 0
      vertex 0.5 -0.5 2
      vertex -0.5 -0.5 2
    endloop
  endfacet
  facet normal 0 -1 -0
    outer loop
      vertex 0.5 -0.5 2
      vertex -0.5 -0.5 0
      vertex 0.5 -0.5 0
    endloop
  endfacet
  facet normal 0 0.816496 0.57735
    outer loop
      vertex 0.707107 0.707107 2
      vertex -0.707107 0.707107 2
      vertex 0 0 3
    endloop
  endfacet
  facet normal -0.816496 0 0.57735
    outer loop
      vertex -0.707107 0.707107 2
      vertex -0.707107 -0.707107 2
      vertex 0 0 3
    endloop
  endfacet
  facet normal 0 -0.816496 0.57735
    outer loop
      vertex 0 0 3
      vertex -0.707107 -0.707107 2
      vertex 0.707107 -0.707107 2
    endloop
  endfacet
  facet normal 0.816496 0 0.57735
    outer loop
      vertex 0.707107 0.707107 2
      vertex 0 0 3
      vertex 0.707107 -0.707107 2
    endloop
  endfacet
endsolid OpenSCAD_Model
